<?xml version="1.0" standalone="no"?>
<!DOCTYPE svg PUBLIC "-//W3C//DTD SVG 20010904//EN"
 "http://www.w3.org/TR/2001/REC-SVG-20010904/DTD/svg10.dtd">
<svg version="1.0" xmlns="http://www.w3.org/2000/svg"
 width="322.000000pt" height="251.000000pt" viewBox="0 0 322.000000 251.000000"
 preserveAspectRatio="xMidYMid meet">

<g transform="translate(0.000000,251.000000) scale(0.100000,-0.100000)"
fill="#0E463D" stroke="#0E463D">
<path d="M547 2480 c-88 -15 -154 -67 -203 -160 -18 -34 -19 -78 -19 -1050 l0
-1015 28 -57 c31 -64 70 -101 137 -132 45 -21 50 -21 1110 -21 1059 0 1065 0
1110 21 54 25 103 72 133 128 l22 41 3 1004 c3 1124 6 1070 -67 1153 -24 26
-62 55 -93 69 l-53 24 -1030 1 c-566 1 -1051 -2 -1078 -6z m897 -777 c133
-136 240 -252 239 -257 -1 -6 -10 -42 -19 -80 -56 -230 105 -465 330 -483 l66
-6 0 107 0 106 -50 0 -50 0 0 130 0 130 189 0 188 0 -1 -372 -2 -373 -190 2
c-219 2 -276 12 -399 76 -59 30 -101 63 -160 122 -132 133 -179 233 -196 418
l-10 112 -102 103 c-56 56 -104 102 -107 102 -3 0 -6 -210 -6 -468 l-1 -467
-152 -3 -151 -3 0 676 0 675 171 0 172 0 241 -247z m891 102 l0 -140 -200 -5
c-217 -5 -243 -11 -316 -70 l-36 -28 -96 96 c-54 54 -97 103 -97 109 0 18 94
90 159 123 31 15 81 33 111 39 30 6 64 13 75 15 11 2 106 3 210 2 l190 -1 0
-140z"/>
</g>
</svg>
