<?xml version="1.0" standalone="no"?>
<!DOCTYPE svg PUBLIC "-//W3C//DTD SVG 20010904//EN"
 "http://www.w3.org/TR/2001/REC-SVG-20010904/DTD/svg10.dtd">
<svg version="1.0" xmlns="http://www.w3.org/2000/svg"
 width="1024.000000pt" height="1024.000000pt" viewBox="0 0 1024.000000 1024.000000"
 preserveAspectRatio="xMidYMid meet">

<g transform="translate(0.000000,1024.000000) scale(0.100000,-0.100000)"
fill="#000000" stroke="none">
<path d="M1430 8422 c0 -8 71 -244 655 -2162 163 -536 352 -1159 421 -1385 68
-225 127 -418 132 -427 8 -19 -17 -52 685 912 186 256 342 469 347 473 4 5 47
-44 94 -110 47 -65 158 -217 247 -338 88 -121 236 -323 327 -448 92 -126 213
-292 269 -369 61 -84 105 -135 108 -127 3 8 41 131 84 274 43 143 143 469 221
725 78 256 213 697 300 980 86 283 206 676 266 872 l109 358 423 0 422 0 0
-1605 0 -1605 385 0 385 0 0 1605 0 1605 770 0 770 0 0 390 0 390 -1858 0
-1857 0 -72 -242 c-40 -134 -167 -553 -282 -933 -115 -379 -242 -799 -282
-932 -40 -134 -75 -243 -79 -243 -6 0 -43 51 -509 697 l-233 323 -131 -183
c-72 -100 -240 -334 -373 -520 l-243 -338 -30 98 c-16 54 -80 265 -141 468
-62 204 -199 656 -305 1005 -106 349 -203 672 -216 718 l-24 82 -392 0 c-216
0 -393 -4 -393 -8z"/>
<path d="M1225 2968 c4 -17 69 -253 144 -522 l137 -491 110 -3 110 -3 99 313
c54 172 101 319 105 326 5 10 129 -361 197 -590 l15 -48 107 0 107 0 69 248
c138 500 175 635 199 717 l24 85 -117 0 -117 0 -88 -361 -88 -361 -109 339
c-60 186 -112 348 -115 361 -6 20 -12 22 -80 22 l-73 0 -36 -112 c-19 -62 -70
-224 -112 -360 -43 -136 -78 -246 -80 -245 -5 5 -173 687 -173 702 0 13 -20
15 -121 15 l-121 0 7 -32z"/>
<path d="M2723 2987 c5 -13 259 -920 280 -999 l9 -38 108 0 108 0 47 148 c26
81 72 227 103 325 l57 179 33 -109 c18 -59 65 -206 103 -325 l70 -218 108 0
107 0 127 458 c70 251 135 487 146 525 l20 67 -118 0 -117 0 -83 -342 c-45
-189 -86 -351 -89 -361 -5 -11 -31 60 -75 200 -38 120 -89 282 -114 361 l-45
142 -73 0 -72 0 -113 -360 -114 -360 -89 360 -89 360 -120 0 c-96 0 -119 -3
-115 -13z"/>
<path d="M4250 2895 l0 -105 140 0 140 0 0 -420 0 -420 110 0 110 0 -2 420 -3
420 138 0 137 0 0 105 0 105 -385 0 -385 0 0 -105z"/>
<path d="M5200 2476 l0 -526 110 0 110 0 0 175 0 175 73 0 73 0 99 -175 100
-175 127 0 127 0 -106 178 c-58 97 -110 183 -116 190 -8 10 -7 16 3 22 138 78
207 200 198 346 -9 130 -75 226 -197 283 -56 26 -58 26 -328 29 l-273 4 0
-526z m497 303 c54 -26 76 -66 76 -137 0 -65 -21 -98 -83 -129 -38 -20 -60
-23 -157 -23 l-113 0 0 155 0 155 117 0 c98 0 124 -3 160 -21z"/>
<path d="M6324 2475 l-191 -525 112 0 113 0 38 113 39 112 204 0 204 0 40
-112 40 -113 114 0 c63 0 112 3 110 8 -3 4 -71 189 -152 412 -80 223 -165 456
-187 518 l-41 112 -126 0 -126 0 -191 -525z m382 70 l61 -165 -130 0 c-71 0
-127 4 -125 8 2 5 30 79 63 165 33 86 62 157 65 157 3 0 32 -75 66 -165z"/>
<path d="M7290 2475 l0 -525 243 0 c170 0 257 4 292 14 184 49 322 188 370
373 17 66 19 177 5 253 -24 129 -134 278 -254 345 -100 55 -160 65 -423 65
l-233 0 0 -525z m511 298 c66 -30 123 -85 150 -146 34 -75 35 -229 1 -302 -29
-63 -73 -110 -137 -143 -45 -24 -63 -27 -177 -30 l-128 -4 0 327 0 327 123 -4
c97 -3 131 -8 168 -25z"/>
<path d="M8380 2475 l0 -525 320 0 320 0 0 95 0 95 -210 0 -210 0 0 125 0 124
175 -2 175 -2 0 95 0 95 -175 -3 -175 -3 0 116 0 115 205 0 205 0 0 100 0 100
-315 0 -315 0 0 -525z"/>
</g>
</svg>
